<svg width="237" height="32" viewBox="0 0 237 32" fill="none" xmlns="http://www.w3.org/2000/svg">
<rect width="10" height="10" rx="2" fill="#FFCE32"/>
<rect y="11" width="10" height="10" rx="2" fill="#FFCE32"/>
<rect y="22" width="10" height="10" rx="2" fill="#FFCE32"/>
<rect x="11" width="10" height="10" rx="2" fill="#FFCE32"/>
<rect x="11" y="11" width="10" height="10" rx="2" fill="#1D63FF"/>
<rect x="22" width="10" height="10" rx="2" fill="#FFCE32"/>
<rect x="22" y="22" width="10" height="10" rx="2" fill="#121722"/>
<path d="M51.5086 4.984H69.3006V10.264H58.5806V14.04H67.7966V19.096H58.5806V27H51.5086V4.984ZM72.6284 8.12V3.8H78.9964V8.12H72.6284ZM72.6284 27V10.104H78.9964V27H72.6284ZM94.7086 9.72C96.6713 9.72 98.1433 10.264 99.1246 11.352C100.106 12.44 100.597 14.008 100.597 16.056V27H94.2286V16.824C94.2286 16.0987 94.0366 15.5227 93.6526 15.096C93.29 14.648 92.7673 14.424 92.0846 14.424C91.2953 14.424 90.6553 14.68 90.1646 15.192C89.674 15.704 89.4286 16.3333 89.4286 17.08V27H83.0606V10.104H88.2766L88.6926 12.664C89.354 11.768 90.218 11.0533 91.2846 10.52C92.3726 9.98667 93.514 9.72 94.7086 9.72ZM112.756 9.72C115.338 9.72 117.439 10.1573 119.06 11.032C120.682 11.8853 121.492 13.2827 121.492 15.224V21.816C121.492 22.1787 121.578 22.4773 121.748 22.712C121.919 22.9467 122.175 23.064 122.516 23.064H123.668V26.744C123.604 26.7867 123.434 26.8613 123.156 26.968C122.9 27.0533 122.527 27.1387 122.036 27.224C121.546 27.3307 120.98 27.384 120.34 27.384C119.103 27.384 118.079 27.2027 117.268 26.84C116.479 26.456 115.935 25.9333 115.636 25.272C114.826 25.912 113.919 26.424 112.916 26.808C111.914 27.192 110.74 27.384 109.396 27.384C105.428 27.384 103.444 25.8053 103.444 22.648C103.444 21.0053 103.882 19.7573 104.756 18.904C105.652 18.0293 106.932 17.432 108.596 17.112C110.26 16.792 112.436 16.632 115.124 16.632V15.8C115.124 15.1387 114.89 14.6373 114.42 14.296C113.972 13.9547 113.386 13.784 112.66 13.784C111.999 13.784 111.423 13.9013 110.932 14.136C110.463 14.3707 110.228 14.744 110.228 15.256V15.384H103.956C103.935 15.2773 103.924 15.128 103.924 14.936C103.924 13.336 104.682 12.0667 106.196 11.128C107.732 10.1893 109.919 9.72 112.756 9.72ZM115.124 19.64C113.311 19.64 111.967 19.8427 111.092 20.248C110.239 20.632 109.812 21.1547 109.812 21.816C109.812 22.8827 110.538 23.416 111.988 23.416C112.82 23.416 113.546 23.192 114.164 22.744C114.804 22.296 115.124 21.7413 115.124 21.08V19.64ZM137.396 9.72C139.359 9.72 140.831 10.264 141.812 11.352C142.793 12.44 143.284 14.008 143.284 16.056V27H136.916V16.824C136.916 16.0987 136.724 15.5227 136.34 15.096C135.977 14.648 135.455 14.424 134.772 14.424C133.983 14.424 133.343 14.68 132.852 15.192C132.361 15.704 132.116 16.3333 132.116 17.08V27H125.748V10.104H130.964L131.38 12.664C132.041 11.768 132.905 11.0533 133.972 10.52C135.06 9.98667 136.201 9.72 137.396 9.72ZM155.828 9.72C158.601 9.72 160.841 10.3173 162.548 11.512C164.276 12.6853 165.14 14.488 165.14 16.92H158.964C158.964 15 157.919 14.04 155.828 14.04C153.737 14.04 152.692 15.2453 152.692 17.656V19.48C152.692 21.8693 153.78 23.064 155.956 23.064C158.132 23.064 159.22 22.0827 159.22 20.12H165.14C165.14 22.5733 164.276 24.3973 162.548 25.592C160.841 26.7867 158.601 27.384 155.828 27.384C152.863 27.384 150.537 26.6373 148.852 25.144C147.167 23.6507 146.324 21.4533 146.324 18.552C146.324 15.6507 147.167 13.4533 148.852 11.96C150.537 10.4667 152.863 9.72 155.828 9.72ZM177.172 9.72C180.265 9.72 182.622 10.4453 184.244 11.896C185.886 13.3467 186.708 15.5653 186.708 18.552V19.64H174.036C174.036 20.856 174.302 21.7733 174.836 22.392C175.39 23.0107 176.254 23.32 177.428 23.32C178.494 23.32 179.273 23.096 179.764 22.648C180.276 22.2 180.532 21.6027 180.532 20.856H186.708C186.708 22.904 185.929 24.504 184.372 25.656C182.814 26.808 180.542 27.384 177.556 27.384C174.42 27.384 171.988 26.6587 170.26 25.208C168.532 23.736 167.668 21.5173 167.668 18.552C167.668 15.6507 168.51 13.4533 170.196 11.96C171.881 10.4667 174.206 9.72 177.172 9.72ZM177.428 13.784C175.422 13.784 174.302 14.7333 174.068 16.632H180.276C180.276 15.7573 180.02 15.064 179.508 14.552C179.017 14.04 178.324 13.784 177.428 13.784ZM215.636 27L214.708 23.896H206.996L206.068 27H198.836L206.868 4.984H215.092L223.124 27H215.636ZM208.468 18.968H213.236L210.932 11.128H210.804L208.468 18.968ZM226.11 27V4.984H233.182V27H226.11Z" fill="#121722"/>
</svg>
